<svg width="177" height="42" viewBox="0 0 177 42" fill="none" xmlns="http://www.w3.org/2000/svg">
<rect x="0.25" y="0.25" width="176.5" height="41.5" rx="7.75" fill="white"/>
<rect x="0.25" y="0.25" width="176.5" height="41.5" rx="7.75" stroke="black" stroke-width="0.5"/>
<path d="M78.8125 14.875C80.0859 14.875 81.1406 15.6094 81.7656 16.875H85.2188V13.8281H86.6875V27.8594H85.2188V22.4844H81.8594C81.2578 23.8906 80.1562 24.7031 78.8125 24.7031C76.7188 24.7031 75.25 22.7969 75.2656 19.7812C75.25 16.7812 76.7188 14.875 78.8125 14.875ZM78.8125 16.2031C77.5469 16.2031 76.6719 17.5781 76.6719 19.7812C76.6719 22 77.5469 23.375 78.8125 23.375C80.0781 23.375 80.9531 22 80.9531 19.7812C80.9531 17.5781 80.0781 16.2031 78.8125 16.2031ZM82.1875 18.0938C82.2891 18.6094 82.3594 19.1719 82.3594 19.7812C82.3594 20.3125 82.3125 20.8047 82.2188 21.2656H85.2188V18.0938H82.1875ZM93.8125 15.9219C93.8125 17.8906 95.0781 19.6406 97.2031 20.3281L96.3906 21.4844C94.8516 20.9297 93.7188 19.8516 93.1094 18.4531C92.5 20.0547 91.2812 21.2969 89.5938 21.9062L88.7969 20.7188C91.0312 19.9531 92.3281 18.0938 92.3438 15.9844V14.6094H93.8125V15.9219ZM100.516 13.8281V22.0938H99.0312V17.8906H96.0781V16.6719H99.0312V13.8281H100.516ZM95.8281 22.4844C98.7656 22.4844 100.562 23.4531 100.562 25.1562C100.562 26.8438 98.7656 27.8125 95.8281 27.7969C92.8906 27.8125 91.0781 26.8438 91.0938 25.1562C91.0781 23.4531 92.8906 22.4844 95.8281 22.4844ZM95.8281 23.6406C93.7812 23.6406 92.5625 24.1875 92.5625 25.1562C92.5625 26.0938 93.7812 26.625 95.8281 26.625C97.875 26.625 99.0938 26.0938 99.0938 25.1562C99.0938 24.1875 97.875 23.6406 95.8281 23.6406Z" fill="black"/>
</svg>
