<svg width="31" height="12" viewBox="0 0 31 12" fill="none" xmlns="http://www.w3.org/2000/svg">
<path d="M10.1953 4.62109V5.53516H8.56641V10.9844H7.45312V0.496094H8.56641V4.62109H10.1953ZM1.88672 1.51562V7.42188C3.35156 7.42188 4.88086 7.29883 6.55078 6.95312L6.67969 7.89062C4.88672 8.25391 3.22266 8.34766 1.65234 8.34766H0.785156V1.51562H1.88672ZM19.4531 0.496094V11.0195H18.3398V0.496094H19.4531ZM13.8398 1.28125C15.3984 1.28125 16.5469 2.71094 16.5469 4.96094C16.5469 7.22266 15.3984 8.65234 13.8398 8.65234C12.2578 8.65234 11.1211 7.22266 11.1211 4.96094C11.1211 2.71094 12.2578 1.28125 13.8398 1.28125ZM13.8398 2.27734C12.8672 2.27734 12.1992 3.30859 12.1992 4.96094C12.1992 6.625 12.8672 7.65625 13.8398 7.65625C14.8008 7.65625 15.4688 6.625 15.4688 4.96094C15.4688 3.30859 14.8008 2.27734 13.8398 2.27734ZM30.1406 0.496094V10.9961H29.0742V5.57031H27.7148V10.457H26.6953V0.707031H27.7148V4.65625H29.0742V0.496094H30.1406ZM25.418 1.76172V2.66406H22.5938V7.52734C23.8828 7.51562 24.8555 7.45703 25.9805 7.24609L26.0625 8.16016C24.7969 8.41797 23.7188 8.46484 22.1836 8.47656H21.4805V1.76172H25.418Z" fill="black"/>
</svg>
