<svg width="45" height="12" viewBox="0 0 45 12" fill="none" xmlns="http://www.w3.org/2000/svg">
<path d="M3.19922 1.28125C4.76953 1.28125 5.88281 2.71094 5.89453 4.96094C5.88281 7.22266 4.76953 8.65234 3.19922 8.65234C1.62891 8.65234 0.503906 7.22266 0.515625 4.96094C0.503906 2.71094 1.62891 1.28125 3.19922 1.28125ZM3.19922 2.27734C2.23828 2.27734 1.58203 3.30859 1.58203 4.96094C1.58203 6.625 2.23828 7.65625 3.19922 7.65625C4.17188 7.65625 4.82812 6.625 4.82812 4.96094C4.82812 3.30859 4.17188 2.27734 3.19922 2.27734ZM8.56641 0.496094V4.60938H10.2539V5.54688H8.56641V10.9961H7.45312V0.496094H8.56641ZM19.4531 0.496094V11.0195H18.3398V0.496094H19.4531ZM13.8398 1.28125C15.3984 1.28125 16.5469 2.71094 16.5469 4.96094C16.5469 7.22266 15.3984 8.65234 13.8398 8.65234C12.2578 8.65234 11.1211 7.22266 11.1211 4.96094C11.1211 2.71094 12.2578 1.28125 13.8398 1.28125ZM13.8398 2.27734C12.8672 2.27734 12.1992 3.30859 12.1992 4.96094C12.1992 6.625 12.8672 7.65625 13.8398 7.65625C14.8008 7.65625 15.4688 6.625 15.4688 4.96094C15.4688 3.30859 14.8008 2.27734 13.8398 2.27734ZM32.7539 0.496094V11.0195H31.6406V0.496094H32.7539ZM27.1406 1.28125C28.6992 1.28125 29.8477 2.71094 29.8477 4.96094C29.8477 7.22266 28.6992 8.65234 27.1406 8.65234C25.5586 8.65234 24.4219 7.22266 24.4219 4.96094C24.4219 2.71094 25.5586 1.28125 27.1406 1.28125ZM27.1406 2.27734C26.168 2.27734 25.5 3.30859 25.5 4.96094C25.5 6.625 26.168 7.65625 27.1406 7.65625C28.1016 7.65625 28.7695 6.625 28.7695 4.96094C28.7695 3.30859 28.1016 2.27734 27.1406 2.27734ZM44.0273 5.875V6.76562H34.418V5.875H44.0273ZM42.8203 0.730469V3.32031H36.75V4.22266H43.0312V5.07812H35.6484V2.5H41.707V1.60938H35.625V0.730469H42.8203ZM42.832 7.62109V10.8672H35.6953V7.62109H42.832ZM36.7969 8.51172V9.96484H41.7305V8.51172H36.7969Z" fill="black"/>
</svg>
