<svg width="288" height="50" viewBox="0 0 288 50" fill="none" xmlns="http://www.w3.org/2000/svg">
<path d="M102.781 0.0234375V17.7969H100.301V8.89062H96.7656V6.85938H100.301V0.0234375H102.781ZM96.8633 1.87891C96.8633 7.25 95.125 11.625 88.9141 14.7109L87.625 12.7578C92.1172 10.541 93.9727 7.71875 94.3633 3.83203H88.4648V1.87891H96.8633ZM110.848 1.21484C113.66 1.19531 115.77 3.03125 115.77 5.57031C115.77 8.12891 113.66 9.94531 110.848 9.94531C108.035 9.94531 105.906 8.12891 105.906 5.57031C105.906 3.03125 108.035 1.19531 110.848 1.21484ZM110.848 3.36328C109.441 3.36328 108.367 4.18359 108.387 5.57031C108.367 6.97656 109.441 7.77734 110.848 7.77734C112.254 7.77734 113.328 6.97656 113.348 5.57031C113.328 4.18359 112.273 3.36328 110.848 3.36328ZM120.027 0.0234375V17.8359H117.547V0.0234375H120.027ZM105.164 12.1719C108.328 12.1914 112.723 12.1328 116.531 11.6055L116.727 13.4023C112.781 14.1641 108.562 14.2031 105.457 14.2031L105.164 12.1719ZM141.004 0.0234375V6.625H143.621V8.65625H141.004V17.8359H138.504V0.0234375H141.004ZM136.023 1.66406V3.67578H130.164V11.4688C132.742 11.4395 134.871 11.3223 137.234 10.9023L137.508 12.9922C134.754 13.4609 132.332 13.5391 129.188 13.5195H127.684V1.66406H136.023ZM158.484 0.0429688V4.37891H160.75V6.41016H158.484V10.6875H155.984V0.0429688H158.484ZM150.535 11.7422C150.535 13.0801 151.121 14.4668 152.547 15.3945C153.973 14.4473 154.598 13.0312 154.617 11.7422V11.4297H157.059V11.7422C157.039 13.4609 158.035 15.0625 160.438 15.7656L159.207 17.582C157.537 17.0449 156.424 16.0098 155.809 14.6914C155.223 16.0293 154.178 17.1719 152.566 17.7578C150.926 17.1719 149.891 16.0488 149.324 14.7305C148.689 16.0098 147.586 17.0352 145.965 17.582L144.754 15.7656C147.098 15.0234 148.074 13.4219 148.094 11.7422V11.4297H150.535V11.7422ZM144.227 8.40234C145.467 8.39258 146.902 8.39258 148.406 8.34375V7.13281C146.434 6.78125 145.125 5.52148 145.145 3.87109C145.125 1.85938 146.98 0.453125 149.617 0.453125C152.234 0.453125 154.09 1.85938 154.09 3.87109C154.09 5.50195 152.82 6.74219 150.906 7.11328V8.24609C152.303 8.17773 153.699 8.06055 154.988 7.875L155.203 9.61328C151.551 10.2578 147.488 10.3164 144.48 10.3164L144.227 8.40234ZM149.617 2.28906C148.309 2.28906 147.449 2.875 147.469 3.87109C147.449 4.84766 148.309 5.45312 149.617 5.45312C150.887 5.45312 151.746 4.84766 151.746 3.87109C151.746 2.875 150.887 2.28906 149.617 2.28906ZM166.453 1.27344C168.855 1.27344 170.643 3.25586 171.004 6.44922H174.09V0.0234375H176.551V17.8359H174.09V8.44141H171.023C170.76 11.8594 168.934 13.9492 166.453 13.9492C163.758 13.9492 161.824 11.5078 161.844 7.60156C161.824 3.73438 163.758 1.27344 166.453 1.27344ZM166.453 3.51953C165.125 3.51953 164.207 4.96484 164.227 7.60156C164.207 10.2578 165.125 11.6836 166.453 11.6836C167.801 11.6836 168.68 10.2578 168.68 7.60156C168.68 4.96484 167.801 3.51953 166.453 3.51953ZM195.105 13.6758V15.7266H178.836V13.6758H182.469V9.32031C181.092 8.5 180.262 7.24023 180.262 5.66797C180.262 2.79688 183.074 0.882812 186.941 0.882812C190.789 0.882812 193.621 2.79688 193.641 5.66797C193.631 7.20117 192.82 8.45117 191.492 9.28125V13.6758H195.105ZM186.941 2.85547C184.402 2.85547 182.723 3.87109 182.723 5.66797C182.723 7.40625 184.402 8.48047 186.941 8.48047C189.461 8.48047 191.16 7.40625 191.18 5.66797C191.16 3.87109 189.461 2.85547 186.941 2.85547ZM184.93 13.6758H188.973V10.2188C188.338 10.3457 187.654 10.4141 186.941 10.4141C186.229 10.4141 185.555 10.3555 184.93 10.2188V13.6758ZM200.164 1.85938L199.91 11.7617H197.41L197.156 1.85938H200.164ZM198.68 16.1758C197.762 16.1758 197.02 15.4336 197.039 14.5352C197.02 13.6367 197.762 12.9141 198.68 12.9141C199.539 12.9141 200.301 13.6367 200.301 14.5352C200.301 15.4336 199.539 16.1758 198.68 16.1758ZM17.0586 45.6953V47.7266H0.789062V45.6953H7.64453V42.4141H2.50781V33.1562H5.00781V35.9102H12.7617V33.1562H15.2422V42.4141H10.125V45.6953H17.0586ZM5.00781 40.4219H12.7617V37.9023H5.00781V40.4219ZM33.5625 34.2695V36.2617H18.7773V34.2695H24.9297V32.1992H27.3906V34.2695H33.5625ZM34.3438 45.9883V47.9805H18.0742V45.9883H24.9297V43.9375C21.9023 43.6836 20.0664 42.4336 20.0859 40.4805C20.0664 38.332 22.4102 37.0234 26.1602 37.043C29.8516 37.0234 32.2148 38.332 32.2148 40.4805C32.2148 42.4336 30.3691 43.6836 27.3906 43.9375V45.9883H34.3438ZM26.1602 38.9766C23.8555 38.9766 22.625 39.4648 22.6445 40.4805C22.625 41.5352 23.8555 42.0039 26.1602 42.0039C28.4062 42.0039 29.6562 41.5352 29.6562 40.4805C29.6562 39.4648 28.4062 38.9766 26.1602 38.9766ZM41.9219 36.8672C41.9023 39.582 43.3477 42.707 46.2773 44.0547L44.8906 46.0078C42.9082 45.0996 41.4922 43.2832 40.7109 41.1445C39.9102 43.498 38.4551 45.4902 36.3945 46.457L34.9492 44.4844C37.918 43.0977 39.4023 39.7969 39.4219 36.8672V35.7734H35.6523V33.7422H45.4961V35.7734H41.9219V36.8672ZM49.3828 32.0234V38.8008H52V40.8906H49.3828V49.7969H46.8828V32.0234H49.3828ZM73.5039 41.1445V43.0977H66.8047V45.9688H64.3438V43.0977H57.2344V41.1445H73.5039ZM71.707 47.4922V49.4844H59.1484V44.5625H61.6094V47.4922H71.707ZM61.7852 32.5898V34.4453H68.9141V32.5898H71.3945V39.8945H59.3242V32.5898H61.7852ZM61.7852 37.9219H68.9141V36.3008H61.7852V37.9219ZM80.3008 33.2148C83.1133 33.1953 85.2227 35.0312 85.2227 37.5703C85.2227 40.1289 83.1133 41.9453 80.3008 41.9453C77.4883 41.9453 75.3594 40.1289 75.3594 37.5703C75.3594 35.0312 77.4883 33.1953 80.3008 33.2148ZM80.3008 35.3633C78.8945 35.3633 77.8203 36.1836 77.8398 37.5703C77.8203 38.9766 78.8945 39.7773 80.3008 39.7773C81.707 39.7773 82.7812 38.9766 82.8008 37.5703C82.7812 36.1836 81.7266 35.3633 80.3008 35.3633ZM89.4805 32.0234V49.8359H87V32.0234H89.4805ZM74.6172 44.1719C77.7812 44.1914 82.1758 44.1328 85.9844 43.6055L86.1797 45.4023C82.2344 46.1641 78.0156 46.2031 74.9102 46.2031L74.6172 44.1719ZM112.977 38.7617V40.793H110.457V49.7578H107.957V32.0234H110.457V38.7617H112.977ZM99.4805 33.7227V43.3516C101.756 43.3223 104.197 43.1074 106.766 42.5898L107.02 44.6602C104.051 45.2656 101.16 45.4219 98.543 45.4219H97V33.7227H99.4805ZM128.602 32.0234V49.8359H126.082V32.0234H128.602ZM118.953 33.2734C121.629 33.2734 123.621 35.7344 123.621 39.6016C123.621 43.5078 121.629 45.9492 118.953 45.9492C116.219 45.9492 114.227 43.5078 114.246 39.6016C114.227 35.7344 116.219 33.2734 118.953 33.2734ZM118.953 35.5195C117.566 35.5195 116.648 36.9648 116.648 39.6016C116.648 42.2578 117.566 43.6836 118.953 43.6836C120.301 43.6836 121.219 42.2578 121.219 39.6016C121.219 36.9648 120.301 35.5195 118.953 35.5195ZM146.375 32.0234V49.7969H144.012V40.8711H142.293V48.9375H140.008V32.3164H142.293V38.8789H144.012V32.0234H146.375ZM138.133 34.0742V36.0859H134.012V43.6641C135.73 43.6543 137.254 43.5664 138.973 43.2539L139.148 45.2852C136.98 45.6953 135.086 45.7539 132.742 45.7734H131.512V34.0742H138.133ZM162.312 32.0234V38.8398H164.832V40.8906H162.312V49.7578H159.812V32.0234H162.312ZM157.566 33.8398C157.547 39.1523 155.477 43.7617 149.5 46.6914L148.094 44.7773C152.303 42.668 154.559 39.8359 155.027 35.8711H149.109V33.8398H157.566ZM175.086 33.2734C177.488 33.2734 179.275 35.2559 179.637 38.4492H182.723V32.0234H185.184V49.8359H182.723V40.4414H179.656C179.393 43.8594 177.566 45.9492 175.086 45.9492C172.391 45.9492 170.457 43.5078 170.477 39.6016C170.457 35.7344 172.391 33.2734 175.086 33.2734ZM175.086 35.5195C173.758 35.5195 172.84 36.9648 172.859 39.6016C172.84 42.2578 173.758 43.6836 175.086 43.6836C176.434 43.6836 177.312 42.2578 177.312 39.6016C177.312 36.9648 176.434 35.5195 175.086 35.5195ZM202.879 42.375V44.2695H189.734V42.375H195.066V40.9883H197.566V42.375H202.879ZM196.277 44.7969C199.539 44.7969 201.512 45.7148 201.512 47.2969C201.512 48.9375 199.539 49.8164 196.277 49.8164C192.996 49.8164 191.023 48.9375 191.043 47.2969C191.023 45.7148 192.996 44.7969 196.277 44.7969ZM196.277 46.5156C194.598 46.5352 193.699 46.75 193.699 47.2969C193.699 47.8828 194.598 48.1172 196.277 48.1172C197.918 48.1172 198.816 47.8828 198.816 47.2969C198.816 46.75 197.918 46.5352 196.277 46.5156ZM192.43 32.7461V34.6797H190.184V38.4102C190.975 38.3809 191.736 38.293 192.605 38.1172L192.762 40.0703C191.258 40.3633 190.145 40.3828 188.621 40.3828H187.762V32.7461H192.43ZM198.23 32.7461V34.6797H195.711V38.4297C196.971 38.4004 197.762 38.3223 198.68 38.1172L198.855 40.0703C197.625 40.3633 196.551 40.3828 194.207 40.3828H193.25V32.7461H198.23ZM202.605 32.0234V41.4961H200.164V37.3555H197.742V35.4609H200.164V32.0234H202.605ZM220.164 32.0234V49.7969H217.82V32.0234H220.164ZM216.375 32.4141V49.0156H214.051V40.8516H211.141C210.125 42.8828 208.475 44.6406 205.945 46.1055L204.539 44.3477C208.123 42.2188 209.705 39.6309 210.047 36.1445H205.516V34.1328H212.527C212.518 35.8223 212.342 37.4141 211.922 38.8789H214.051V32.4141H216.375ZM237.234 39.25V41.2422H233.777V44.1523C235.242 44.1035 236.707 44.0059 238.094 43.8594L238.289 45.6758C234.402 46.2812 230.359 46.3008 227.02 46.3008L226.727 44.2695C228.143 44.2793 229.686 44.2793 231.277 44.2305V41.2422H227.898V33.6055H237.137V35.5781H230.379V39.25H237.234ZM241.59 32.0234V49.8359H239.109V32.0234H241.59ZM260.477 38.7617V40.793H257.957V49.7578H255.457V32.0234H257.957V38.7617H260.477ZM246.98 33.7227V43.3516C249.256 43.3223 251.697 43.1074 254.266 42.5898L254.52 44.6602C251.551 45.2656 248.66 45.4219 246.043 45.4219H244.5V33.7227H246.98ZM277.488 45.6758V47.7266H261.219V45.6758H264.852V41.3203C263.475 40.5 262.645 39.2402 262.645 37.668C262.645 34.7969 265.457 32.8828 269.324 32.8828C273.172 32.8828 276.004 34.7969 276.023 37.668C276.014 39.2012 275.203 40.4512 273.875 41.2812V45.6758H277.488ZM269.324 34.8555C266.785 34.8555 265.105 35.8711 265.105 37.668C265.105 39.4062 266.785 40.4805 269.324 40.4805C271.844 40.4805 273.543 39.4062 273.562 37.668C273.543 35.8711 271.844 34.8555 269.324 34.8555ZM267.312 45.6758H271.355V42.2188C270.721 42.3457 270.037 42.4141 269.324 42.4141C268.611 42.4141 267.938 42.3555 267.312 42.2188V45.6758ZM281.609 43.5469C281.629 41.125 282.273 40.3633 283.445 39.6406C284.285 39.0938 284.93 38.4883 284.93 37.5898C284.93 36.6133 284.168 35.9688 283.23 35.9688C282.312 35.9688 281.473 36.5742 281.434 37.7266H278.66C278.719 34.9727 280.75 33.6641 283.25 33.6641C285.965 33.6641 287.898 35.0898 287.898 37.4922C287.898 39.0938 287.078 40.1289 285.789 40.8906C284.695 41.5547 284.207 42.1797 284.188 43.5469V43.7617H281.609V43.5469ZM282.957 48.1758C282.039 48.1758 281.297 47.4336 281.316 46.5352C281.297 45.6367 282.039 44.9141 282.957 44.9141C283.816 44.9141 284.578 45.6367 284.578 46.5352C284.578 47.4336 283.816 48.1758 282.957 48.1758Z" fill="black"/>
</svg>
