<svg width="20" height="11" viewBox="0 0 20 11" fill="none" xmlns="http://www.w3.org/2000/svg">
<path d="M4.11328 2.06641C4.11328 3.54297 5.0625 4.85547 6.65625 5.37109L6.04688 6.23828C4.89258 5.82227 4.04297 5.01367 3.58594 3.96484C3.12891 5.16602 2.21484 6.09766 0.949219 6.55469L0.351562 5.66406C2.02734 5.08984 3 3.69531 3.01172 2.11328V1.08203H4.11328V2.06641ZM9.14062 0.496094V6.69531H8.02734V3.54297H5.8125V2.62891H8.02734V0.496094H9.14062ZM5.625 6.98828C7.82812 6.98828 9.17578 7.71484 9.17578 8.99219C9.17578 10.2578 7.82812 10.9844 5.625 10.9727C3.42188 10.9844 2.0625 10.2578 2.07422 8.99219C2.0625 7.71484 3.42188 6.98828 5.625 6.98828ZM5.625 7.85547C4.08984 7.85547 3.17578 8.26562 3.17578 8.99219C3.17578 9.69531 4.08984 10.0938 5.625 10.0938C7.16016 10.0938 8.07422 9.69531 8.07422 8.99219C8.07422 8.26562 7.16016 7.85547 5.625 7.85547ZM19.5 0.496094V5.95703H18.3984V4.70312H16.1016V5.57031H11.2617V0.976562H12.375V2.39453H15V0.976562H16.1016V1.9375H18.3984V0.496094H19.5ZM19.5 6.42578V9.00391H13.7695V9.97656H19.875V10.8672H12.6562V8.17188H18.3984V7.29297H12.6328V6.42578H19.5ZM12.375 4.67969H15V3.25H12.375V4.67969ZM16.1016 3.84766H18.3984V2.79297H16.1016V3.84766Z" fill="black"/>
</svg>
