<svg width="209" height="50" viewBox="0 0 209 50" fill="none" xmlns="http://www.w3.org/2000/svg">
<path d="M81.4922 0.0429688V5.04297H83.8945V7.09375H81.4922V13.1289H78.9922V0.0429688H81.4922ZM82.1367 15.4922V17.4844H69.9688V11.7812H72.4492V15.4922H82.1367ZM70.3984 1.29297V3.87109H74.0312V1.29297H76.5312V10.2969H67.918V1.29297H70.3984ZM70.3984 8.34375H74.0312V5.78516H70.3984V8.34375ZM98.6992 0.0234375V6.83984H101.219V8.89062H98.6992V17.7578H96.1992V0.0234375H98.6992ZM93.9531 1.83984C93.9336 7.15234 91.8633 11.7617 85.8867 14.6914L84.4805 12.7773C88.6895 10.668 90.9453 7.83594 91.4141 3.87109H85.4961V1.83984H93.9531ZM117.137 0.0429688V17.7969H114.598V13.8711H110.984V11.9961H114.598V0.0429688H117.137ZM101.883 9.04688C105.203 9.04688 109.637 9.02734 113.465 8.51953L113.602 10.3359C112.039 10.6191 110.428 10.7949 108.855 10.9023V17.2695H106.336V11.0195C104.861 11.0684 103.465 11.0781 102.195 11.0781L101.883 9.04688ZM107.703 0.746094C110.32 0.746094 112.254 2.26953 112.273 4.39844C112.254 6.58594 110.32 8.03125 107.703 8.03125C105.047 8.03125 103.133 6.58594 103.133 4.39844C103.133 2.26953 105.047 0.746094 107.703 0.746094ZM107.703 2.64062C106.375 2.64062 105.477 3.32422 105.477 4.39844C105.477 5.51172 106.375 6.13672 107.703 6.13672C108.992 6.13672 109.891 5.51172 109.91 4.39844C109.891 3.32422 108.992 2.64062 107.703 2.64062ZM135.516 13.6758V15.7266H119.246V13.6758H122.879V9.32031C121.502 8.5 120.672 7.24023 120.672 5.66797C120.672 2.79688 123.484 0.882812 127.352 0.882812C131.199 0.882812 134.031 2.79688 134.051 5.66797C134.041 7.20117 133.23 8.45117 131.902 9.28125V13.6758H135.516ZM127.352 2.85547C124.812 2.85547 123.133 3.87109 123.133 5.66797C123.133 7.40625 124.812 8.48047 127.352 8.48047C129.871 8.48047 131.57 7.40625 131.59 5.66797C131.57 3.87109 129.871 2.85547 127.352 2.85547ZM125.34 13.6758H129.383V10.2188C128.748 10.3457 128.064 10.4141 127.352 10.4141C126.639 10.4141 125.965 10.3555 125.34 10.2188V13.6758ZM140.574 1.85938L140.32 11.7617H137.82L137.566 1.85938H140.574ZM139.09 16.1758C138.172 16.1758 137.43 15.4336 137.449 14.5352C137.43 13.6367 138.172 12.9141 139.09 12.9141C139.949 12.9141 140.711 13.6367 140.711 14.5352C140.711 15.4336 139.949 16.1758 139.09 16.1758ZM4.75391 33.2734C7.46875 33.2734 9.42188 35.7344 9.44141 39.6016C9.42188 43.5078 7.46875 45.9492 4.75391 45.9492C2.03906 45.9492 0.046875 43.5078 0.0664062 39.6016C0.046875 35.7344 2.03906 33.2734 4.75391 33.2734ZM4.75391 35.5195C3.38672 35.5195 2.46875 36.9648 2.46875 39.6016C2.46875 42.2578 3.38672 43.6836 4.75391 43.6836C6.14062 43.6836 7.03906 42.2578 7.05859 39.6016C7.03906 36.9648 6.14062 35.5195 4.75391 35.5195ZM13.9922 32.0234V38.7227H16.6094V40.793H13.9922V49.7969H11.4922V32.0234H13.9922ZM32.1367 32.0234V49.8359H29.6172V32.0234H32.1367ZM22.4883 33.2734C25.1641 33.2734 27.1562 35.7344 27.1562 39.6016C27.1562 43.5078 25.1641 45.9492 22.4883 45.9492C19.7539 45.9492 17.7617 43.5078 17.7812 39.6016C17.7617 35.7344 19.7539 33.2734 22.4883 33.2734ZM22.4883 35.5195C21.1016 35.5195 20.1836 36.9648 20.1836 39.6016C20.1836 42.2578 21.1016 43.6836 22.4883 43.6836C23.8359 43.6836 24.7539 42.2578 24.7539 39.6016C24.7539 36.9648 23.8359 35.5195 22.4883 35.5195ZM40.3008 33.2148C43.1133 33.1953 45.2227 35.0312 45.2227 37.5703C45.2227 40.1289 43.1133 41.9453 40.3008 41.9453C37.4883 41.9453 35.3594 40.1289 35.3594 37.5703C35.3594 35.0312 37.4883 33.1953 40.3008 33.2148ZM40.3008 35.3633C38.8945 35.3633 37.8203 36.1836 37.8398 37.5703C37.8203 38.9766 38.8945 39.7773 40.3008 39.7773C41.707 39.7773 42.7812 38.9766 42.8008 37.5703C42.7812 36.1836 41.7266 35.3633 40.3008 35.3633ZM49.4805 32.0234V49.8359H47V32.0234H49.4805ZM34.6172 44.1719C37.7812 44.1914 42.1758 44.1328 45.9844 43.6055L46.1797 45.4023C42.2344 46.1641 38.0156 46.2031 34.9102 46.2031L34.6172 44.1719ZM71.3164 32.0234V49.8359H68.7969V32.0234H71.3164ZM61.668 33.2734C64.3438 33.2734 66.3359 35.7344 66.3359 39.6016C66.3359 43.5078 64.3438 45.9492 61.668 45.9492C58.9336 45.9492 56.9414 43.5078 56.9609 39.6016C56.9414 35.7344 58.9336 33.2734 61.668 33.2734ZM61.668 35.5195C60.2812 35.5195 59.3633 36.9648 59.3633 39.6016C59.3633 42.2578 60.2812 43.6836 61.668 43.6836C63.0156 43.6836 63.9336 42.2578 63.9336 39.6016C63.9336 36.9648 63.0156 35.5195 61.668 35.5195ZM89.9688 40.9883V42.9609H73.6992V40.9883H89.9688ZM87.9961 32.3555V37.1016H78.2109V38.1367H88.3281V40.0312H75.7305V35.3047H85.4961V34.2695H75.6914V32.3555H87.9961ZM88.0742 44.0547V49.6016H75.7891V44.0547H88.0742ZM78.2305 46.0273V47.6094H85.5938V46.0273H78.2305ZM105.887 32.0234V49.8359H103.367V32.0234H105.887ZM96.2383 33.2734C98.9141 33.2734 100.906 35.7344 100.906 39.6016C100.906 43.5078 98.9141 45.9492 96.2383 45.9492C93.5039 45.9492 91.5117 43.5078 91.5312 39.6016C91.5117 35.7344 93.5039 33.2734 96.2383 33.2734ZM96.2383 35.5195C94.8516 35.5195 93.9336 36.9648 93.9336 39.6016C93.9336 42.2578 94.8516 43.6836 96.2383 43.6836C97.5859 43.6836 98.5039 42.2578 98.5039 39.6016C98.5039 36.9648 97.5859 35.5195 96.2383 35.5195ZM129.148 41.9648V43.957H122.195V49.7773H119.734V43.957H112.879V41.9648H129.148ZM127.195 32.8828V40.0508H114.793V32.8828H127.195ZM117.254 34.8555V38.0977H124.715V34.8555H117.254ZM145.164 32.0234V43.957H142.684V38.6055H139.715C139.217 40.5781 137.41 41.9258 135.145 41.9258C132.449 41.9258 130.398 40.0703 130.418 37.5312C130.398 34.9531 132.449 33.1562 135.145 33.1562C137.469 33.1562 139.305 34.5234 139.734 36.5938H142.684V32.0234H145.164ZM135.145 35.2461C133.758 35.2461 132.762 36.1445 132.781 37.5312C132.762 38.957 133.758 39.7969 135.145 39.7969C136.453 39.7969 137.469 38.957 137.469 37.5312C137.469 36.1445 136.453 35.2461 135.145 35.2461ZM140.477 43.3711C140.457 45.2461 142.352 47.2578 146.18 47.7461L145.203 49.6992C142.303 49.2891 140.232 47.9902 139.168 46.2617C138.074 47.9707 136.004 49.2891 133.113 49.6992L132.234 47.7461C135.926 47.2188 137.898 45.1289 137.918 43.3711V42.8633H140.477V43.3711ZM162.352 32.043V44.8164H159.852V32.043H162.352ZM162.82 47.4922V49.4844H150.438V43.5273H152.957V47.4922H162.82ZM152.605 33.1758C155.34 33.1758 157.469 35.0508 157.469 37.6484C157.469 40.3047 155.34 42.1602 152.605 42.1602C149.871 42.1602 147.742 40.3047 147.742 37.6484C147.742 35.0508 149.871 33.1758 152.605 33.1758ZM152.605 35.3438C151.219 35.3242 150.164 36.2031 150.184 37.6484C150.164 39.1328 151.219 39.9922 152.605 39.9922C153.953 39.9922 155.008 39.1328 155.008 37.6484C155.008 36.2031 153.953 35.3242 152.605 35.3438ZM178.777 32.0234V38.8398H181.297V40.8906H178.777V49.7578H176.277V32.0234H178.777ZM174.031 33.8398C174.012 39.1523 171.941 43.7617 165.965 46.6914L164.559 44.7773C168.768 42.668 171.023 39.8359 171.492 35.8711H165.574V33.8398H174.031ZM198.309 45.6758V47.7266H182.039V45.6758H185.672V41.3203C184.295 40.5 183.465 39.2402 183.465 37.668C183.465 34.7969 186.277 32.8828 190.145 32.8828C193.992 32.8828 196.824 34.7969 196.844 37.668C196.834 39.2012 196.023 40.4512 194.695 41.2812V45.6758H198.309ZM190.145 34.8555C187.605 34.8555 185.926 35.8711 185.926 37.668C185.926 39.4062 187.605 40.4805 190.145 40.4805C192.664 40.4805 194.363 39.4062 194.383 37.668C194.363 35.8711 192.664 34.8555 190.145 34.8555ZM188.133 45.6758H192.176V42.2188C191.541 42.3457 190.857 42.4141 190.145 42.4141C189.432 42.4141 188.758 42.3555 188.133 42.2188V45.6758ZM202.43 43.5469C202.449 41.125 203.094 40.3633 204.266 39.6406C205.105 39.0938 205.75 38.4883 205.75 37.5898C205.75 36.6133 204.988 35.9688 204.051 35.9688C203.133 35.9688 202.293 36.5742 202.254 37.7266H199.48C199.539 34.9727 201.57 33.6641 204.07 33.6641C206.785 33.6641 208.719 35.0898 208.719 37.4922C208.719 39.0938 207.898 40.1289 206.609 40.8906C205.516 41.5547 205.027 42.1797 205.008 43.5469V43.7617H202.43V43.5469ZM203.777 48.1758C202.859 48.1758 202.117 47.4336 202.137 46.5352C202.117 45.6367 202.859 44.9141 203.777 44.9141C204.637 44.9141 205.398 45.6367 205.398 46.5352C205.398 47.4336 204.637 48.1758 203.777 48.1758Z" fill="black"/>
</svg>
