<svg width="287" height="48" viewBox="0 0 287 48" fill="none" xmlns="http://www.w3.org/2000/svg">
<rect width="287" height="48" rx="4" fill="#208FFF"/>
<path d="M112.422 16.8281V22.25H114.672V23.5H112.422V30.8281H110.938V16.8281H112.422ZM103.516 18V21.5938H107.219V18H108.688V27.5H102.047V18H103.516ZM103.516 26.2812H107.219V22.7656H103.516V26.2812ZM127.836 27.9062V29.1562H115.024V27.9062H120.664V25.4531H116.586V21H124.805V19.0312H116.555V17.8125H126.274V22.1875H118.055V24.2344H126.602V25.4531H122.133V27.9062H127.836ZM137.259 20.3906C137.243 22.9531 138.79 25.5156 140.962 26.4844L140.071 27.6562C138.462 26.8906 137.188 25.3203 136.54 23.4062C135.884 25.4531 134.595 27.1484 132.915 27.9688L132.009 26.7188C134.212 25.7344 135.759 23.0625 135.759 20.3906V18H137.259V20.3906ZM143.712 16.8281V30.8594H142.228V16.8281H143.712ZM150.517 19.3438C150.517 21.125 151.751 22.8281 153.892 23.5469L153.142 24.7031C151.556 24.1562 150.392 23.0625 149.783 21.6875C149.173 23.2031 147.962 24.3906 146.314 24.9688L145.517 23.8125C147.704 23.0625 149.017 21.2656 149.033 19.3281V18.9531H145.954V17.75H153.533V18.9531H150.517V19.3438ZM156.626 16.8281V20.4219H158.658V21.6719H156.626V25.2656H155.142V16.8281H156.626ZM156.626 25.9531V30.8281H155.142V27.1562H147.376V25.9531H156.626ZM170.041 16.8281V22.5H172.291V23.7344H170.041V30.8281H168.572V16.8281H170.041ZM167.353 19.0156V20.2344H159.056V19.0156H162.509V17.0156H163.994V19.0156H167.353ZM163.259 21.2656C165.259 21.2656 166.728 22.6094 166.744 24.5156C166.728 26.4375 165.259 27.7656 163.259 27.7812C161.244 27.7656 159.775 26.4375 159.775 24.5156C159.775 22.6094 161.244 21.2656 163.259 21.2656ZM163.259 22.4844C162.072 22.4844 161.181 23.3125 161.197 24.5156C161.181 25.7344 162.072 26.5469 163.259 26.5312C164.447 26.5469 165.322 25.7344 165.322 24.5156C165.322 23.3125 164.447 22.4844 163.259 22.4844ZM184.283 16.8281V30.8281H182.783V16.8281H184.283ZM180.111 18.3281C180.111 22.4219 178.361 25.9844 173.564 28.2812L172.783 27.0781C176.51 25.3047 178.322 22.7812 178.611 19.5156H173.455V18.3281H180.111Z" fill="white"/>
</svg>
