<svg width="177" height="42" viewBox="0 0 177 42" fill="none" xmlns="http://www.w3.org/2000/svg">
<rect x="0.25" y="0.25" width="176.5" height="41.5" rx="7.75" fill="white"/>
<rect x="0.25" y="0.25" width="176.5" height="41.5" rx="7.75" stroke="black" stroke-width="0.5"/>
<path d="M86.0156 13.8438V16.9531H88.0625V18.1875H86.0156V21.7344H84.5312V13.8438H86.0156ZM86.0156 22.4688V27.6406H77.0469V22.4688H86.0156ZM78.5 23.625V26.4531H84.5781V23.625H78.5ZM77.1406 14.5312V19.5469C79.0391 19.5312 81.0234 19.3672 83.1719 18.9375L83.3594 20.1562C81 20.6406 78.8594 20.7656 76.7969 20.7812H75.6562V14.5312H77.1406ZM93.8125 15.9219C93.8125 17.8906 95.0781 19.6406 97.2031 20.3281L96.3906 21.4844C94.8516 20.9297 93.7188 19.8516 93.1094 18.4531C92.5 20.0547 91.2812 21.2969 89.5938 21.9062L88.7969 20.7188C91.0312 19.9531 92.3281 18.0938 92.3438 15.9844V14.6094H93.8125V15.9219ZM100.516 13.8281V22.0938H99.0312V17.8906H96.0781V16.6719H99.0312V13.8281H100.516ZM95.8281 22.4844C98.7656 22.4844 100.562 23.4531 100.562 25.1562C100.562 26.8438 98.7656 27.8125 95.8281 27.7969C92.8906 27.8125 91.0781 26.8438 91.0938 25.1562C91.0781 23.4531 92.8906 22.4844 95.8281 22.4844ZM95.8281 23.6406C93.7812 23.6406 92.5625 24.1875 92.5625 25.1562C92.5625 26.0938 93.7812 26.625 95.8281 26.625C97.875 26.625 99.0938 26.0938 99.0938 25.1562C99.0938 24.1875 97.875 23.6406 95.8281 23.6406Z" fill="black"/>
</svg>
