<svg width="193" height="18" viewBox="0 0 193 18" fill="none" xmlns="http://www.w3.org/2000/svg">
<path d="M5.39648 1.27344C8.11133 1.27344 10.0645 3.73438 10.084 7.60156C10.0645 11.5078 8.11133 13.9492 5.39648 13.9492C2.68164 13.9492 0.689453 11.5078 0.708984 7.60156C0.689453 3.73438 2.68164 1.27344 5.39648 1.27344ZM5.39648 3.51953C4.0293 3.51953 3.11133 4.96484 3.11133 7.60156C3.11133 10.2578 4.0293 11.6836 5.39648 11.6836C6.7832 11.6836 7.68164 10.2578 7.70117 7.60156C7.68164 4.96484 6.7832 3.51953 5.39648 3.51953ZM14.6348 0.0234375V6.72266H17.252V8.79297H14.6348V17.7969H12.1348V0.0234375H14.6348ZM32.7793 0.0234375V17.8359H30.2598V0.0234375H32.7793ZM23.1309 1.27344C25.8066 1.27344 27.7988 3.73438 27.7988 7.60156C27.7988 11.5078 25.8066 13.9492 23.1309 13.9492C20.3965 13.9492 18.4043 11.5078 18.4238 7.60156C18.4043 3.73438 20.3965 1.27344 23.1309 1.27344ZM23.1309 3.51953C21.7441 3.51953 20.8262 4.96484 20.8262 7.60156C20.8262 10.2578 21.7441 11.6836 23.1309 11.6836C24.4785 11.6836 25.3965 10.2578 25.3965 7.60156C25.3965 4.96484 24.4785 3.51953 23.1309 3.51953ZM46.5098 2.44531C46.4902 4.82812 47.7207 7.01562 50.5723 7.89453L49.2637 9.84766C47.3496 9.18359 46.0508 7.95312 45.3184 6.35156C44.5176 8.20703 43.082 9.67188 40.9434 10.3945L39.6348 8.40234C42.6816 7.42578 43.9707 5.04297 43.9902 2.5625V0.941406H46.5098V2.44531ZM54.7715 0.0234375V10.4336H52.291V5.31641H48.9512V3.28516H52.291V0.0234375H54.7715ZM48.6973 10.9023C52.4863 10.9023 54.8105 12.1719 54.8301 14.3594C54.8105 16.5469 52.4863 17.7969 48.6973 17.7969C44.9082 17.7969 42.584 16.5469 42.584 14.3594C42.584 12.1719 44.9082 10.9023 48.6973 10.9023ZM48.6973 12.8359C46.334 12.8359 45.0645 13.3438 45.0645 14.3594C45.0645 15.3359 46.334 15.8633 48.6973 15.8633C51.0605 15.8633 52.3496 15.3359 52.3496 14.3594C52.3496 13.3438 51.0605 12.8359 48.6973 12.8359ZM72.0566 0.0234375V9.16406H69.5762V7.38672H66.2949V8.65625H57.8379V0.785156H60.3379V2.85547H63.834V0.785156H66.2949V2.28906H69.5762V0.0234375H72.0566ZM72.0566 9.82812V14.5742H62.7402V15.6484H72.584V17.6016H60.2402V12.7578H69.5762V11.7422H60.2207V9.82812H72.0566ZM60.3379 6.70312H63.834V4.75H60.3379V6.70312ZM66.2949 5.51172H69.5762V4.14453H66.2949V5.51172ZM90.5723 9.10547V11.0977H74.3613V9.10547H90.5723ZM88.7363 15.4922V17.4844H76.3145V12.2891H78.8145V15.4922H88.7363ZM82.4668 0.570312C86.3535 0.550781 88.9121 1.9375 88.9316 4.20312C88.9121 6.46875 86.3535 7.875 82.4668 7.875C78.541 7.875 75.9824 6.46875 75.9824 4.20312C75.9824 1.9375 78.541 0.550781 82.4668 0.570312ZM82.4668 2.52344C80.0059 2.54297 78.5605 3.12891 78.5801 4.20312C78.5605 5.31641 80.0059 5.86328 82.4668 5.86328C84.9277 5.86328 86.3535 5.31641 86.3535 4.20312C86.3535 3.12891 84.9277 2.54297 82.4668 2.52344ZM112.506 9.96484V11.957H105.553V17.7773H103.092V11.957H96.2363V9.96484H112.506ZM110.553 0.882812V8.05078H98.1504V0.882812H110.553ZM100.611 2.85547V6.09766H108.072V2.85547H100.611ZM128.521 0.0234375V11.957H126.041V6.60547H123.072C122.574 8.57812 120.768 9.92578 118.502 9.92578C115.807 9.92578 113.756 8.07031 113.775 5.53125C113.756 2.95312 115.807 1.15625 118.502 1.15625C120.826 1.15625 122.662 2.52344 123.092 4.59375H126.041V0.0234375H128.521ZM118.502 3.24609C117.115 3.24609 116.119 4.14453 116.139 5.53125C116.119 6.95703 117.115 7.79688 118.502 7.79688C119.811 7.79688 120.826 6.95703 120.826 5.53125C120.826 4.14453 119.811 3.24609 118.502 3.24609ZM123.834 11.3711C123.814 13.2461 125.709 15.2578 129.537 15.7461L128.561 17.6992C125.66 17.2891 123.59 15.9902 122.525 14.2617C121.432 15.9707 119.361 17.2891 116.471 17.6992L115.592 15.7461C119.283 15.2188 121.256 13.1289 121.275 11.3711V10.8633H123.834V11.3711ZM145.709 0.0429688V12.8164H143.209V0.0429688H145.709ZM146.178 15.4922V17.4844H133.795V11.5273H136.314V15.4922H146.178ZM135.963 1.17578C138.697 1.17578 140.826 3.05078 140.826 5.64844C140.826 8.30469 138.697 10.1602 135.963 10.1602C133.229 10.1602 131.1 8.30469 131.1 5.64844C131.1 3.05078 133.229 1.17578 135.963 1.17578ZM135.963 3.34375C134.576 3.32422 133.521 4.20312 133.541 5.64844C133.521 7.13281 134.576 7.99219 135.963 7.99219C137.311 7.99219 138.365 7.13281 138.365 5.64844C138.365 4.20312 137.311 3.32422 135.963 3.34375ZM162.135 0.0234375V6.83984H164.654V8.89062H162.135V17.7578H159.635V0.0234375H162.135ZM157.389 1.83984C157.369 7.15234 155.299 11.7617 149.322 14.6914L147.916 12.7773C152.125 10.668 154.381 7.83594 154.85 3.87109H148.932V1.83984H157.389ZM181.666 13.6758V15.7266H165.396V13.6758H169.029V9.32031C167.652 8.5 166.822 7.24023 166.822 5.66797C166.822 2.79688 169.635 0.882812 173.502 0.882812C177.35 0.882812 180.182 2.79688 180.201 5.66797C180.191 7.20117 179.381 8.45117 178.053 9.28125V13.6758H181.666ZM173.502 2.85547C170.963 2.85547 169.283 3.87109 169.283 5.66797C169.283 7.40625 170.963 8.48047 173.502 8.48047C176.021 8.48047 177.721 7.40625 177.74 5.66797C177.721 3.87109 176.021 2.85547 173.502 2.85547ZM171.49 13.6758H175.533V10.2188C174.898 10.3457 174.215 10.4141 173.502 10.4141C172.789 10.4141 172.115 10.3555 171.49 10.2188V13.6758ZM185.787 11.5469C185.807 9.125 186.451 8.36328 187.623 7.64062C188.463 7.09375 189.107 6.48828 189.107 5.58984C189.107 4.61328 188.346 3.96875 187.408 3.96875C186.49 3.96875 185.65 4.57422 185.611 5.72656H182.838C182.896 2.97266 184.928 1.66406 187.428 1.66406C190.143 1.66406 192.076 3.08984 192.076 5.49219C192.076 7.09375 191.256 8.12891 189.967 8.89062C188.873 9.55469 188.385 10.1797 188.365 11.5469V11.7617H185.787V11.5469ZM187.135 16.1758C186.217 16.1758 185.475 15.4336 185.494 14.5352C185.475 13.6367 186.217 12.9141 187.135 12.9141C187.994 12.9141 188.756 13.6367 188.756 14.5352C188.756 15.4336 187.994 16.1758 187.135 16.1758Z" fill="black"/>
</svg>
