<svg width="177" height="42" viewBox="0 0 177 42" fill="none" xmlns="http://www.w3.org/2000/svg">
<rect width="177" height="42" rx="8" fill="#208FFF"/>
<path d="M85.9219 13.8281V19.25H88.1719V20.4688H85.9219V27.8594H84.4375V13.8281H85.9219ZM82.1562 15.1719V16.375H77.0938V23.1406C79.4453 23.1328 81.2109 23.0312 83.2031 22.6719L83.3906 23.9219C81.2031 24.3125 79.3438 24.3906 76.7344 24.375H75.6094V15.1719H82.1562ZM95.2188 14.125C98.2969 14.125 100.219 15.125 100.219 16.8125C100.219 18.4688 98.2969 19.4531 95.2188 19.4531C92.1562 19.4531 90.2188 18.4688 90.2188 16.8125C90.2188 15.125 92.1562 14.125 95.2188 14.125ZM95.2188 15.2969C93.0625 15.2969 91.7344 15.8438 91.75 16.8125C91.7344 17.75 93.0625 18.2812 95.2188 18.2969C97.3594 18.2812 98.6875 17.75 98.6875 16.8125C98.6875 15.8438 97.3594 15.2969 95.2188 15.2969ZM100.047 22.9844V27.6562H90.375V22.9844H100.047ZM91.8438 24.1719V26.4531H98.6094V24.1719H91.8438ZM101.609 20.5312V21.7344H88.8438V20.5312H101.609Z" fill="white"/>
</svg>
