<svg width="177" height="42" viewBox="0 0 177 42" fill="none" xmlns="http://www.w3.org/2000/svg">
<rect x="0.25" y="0.25" width="176.5" height="41.5" rx="7.75" fill="white"/>
<rect x="0.25" y="0.25" width="176.5" height="41.5" rx="7.75" stroke="black" stroke-width="0.5"/>
<path d="M86.6094 13.8281V27.8594H85.125V13.8281H86.6094ZM79.125 14.875C81.2031 14.875 82.7344 16.7812 82.7344 19.7812C82.7344 22.7969 81.2031 24.7031 79.125 24.7031C77.0156 24.7031 75.5 22.7969 75.5 19.7812C75.5 16.7812 77.0156 14.875 79.125 14.875ZM79.125 16.2031C77.8281 16.2031 76.9375 17.5781 76.9375 19.7812C76.9375 22 77.8281 23.375 79.125 23.375C80.4062 23.375 81.2969 22 81.2969 19.7812C81.2969 17.5781 80.4062 16.2031 79.125 16.2031ZM100.516 13.8438V24.0938H99.0312V18.8281H96.3594V17.625H99.0312V13.8438H100.516ZM100.891 26.3281V27.5312H91.4219V23.1719H92.9062V26.3281H100.891ZM93.8594 16.6719C93.8594 18.4219 95.125 20.1719 97.2344 20.875L96.4688 22.0625C94.8984 21.5078 93.7344 20.3828 93.125 19C92.5156 20.5391 91.2891 21.7812 89.625 22.375L88.8594 21.1719C91.0156 20.4375 92.3438 18.5938 92.3438 16.6719V16.125H89.3125V14.9062H96.8594V16.125H93.8594V16.6719Z" fill="black"/>
</svg>
